<svg width="331" height="78" fill="none" xmlns="http://www.w3.org/2000/svg">
  <path fill-rule="evenodd" clip-rule="evenodd" d="M261.296 21.38v24.776h-6.603V9.782h8.169a.813.813 0 01.775.395c4.87 7.205 9.751 14.403 14.64 21.595.101.17.246.311.42.407V9.81h6.409v36.386h-5.821a.97.97 0 01-.928-.485c-5.508-7.95-11.023-15.89-16.545-23.824-.133-.19-.269-.376-.402-.562l-.114.055zM307.374 9.065c6.206.305 11.505 3.72 14.782 10.133a19.254 19.254 0 01-4.423 23.076 17.152 17.152 0 01-12.5 4.293 17.149 17.149 0 01-11.84-5.873c-3.613-4.141-5.219-8.99-4.73-14.447.608-6.784 3.833-11.95 9.855-15.253 2.418-1.333 5.062-1.915 8.856-1.93zm-11.509 18.22c0 2.939.676 5.088 2.016 7.027 3.692 5.355 10.807 6.15 15.42 1.727 4.311-4.131 4.604-11.27.618-15.733-3.465-3.892-8.759-4.706-12.971-1.91-3.353 2.237-4.96 5.47-5.083 8.889zM85.067 34.106c.889.147 1.747.288 2.604.436 1.425.242 2.848.499 4.272.741.243.041.434.097.485.402.55 2.855 2.38 4.396 5.152 4.902 1.862.38 3.789.297 5.612-.242a6.831 6.831 0 001.722-.797 3.742 3.742 0 001.325-4.876 3.746 3.746 0 00-1.208-1.373c-1.299-.943-2.816-1.377-4.326-1.813-2.44-.707-4.9-1.345-7.317-2.125a11.535 11.535 0 01-4.815-2.908c-1.88-1.938-2.489-4.308-2.394-6.913.186-5.132 3.53-8.34 7.683-9.66 4.658-1.486 9.245-1.181 13.587 1.109 3.097 1.633 4.783 4.332 5.239 7.795.073.536.089 1.076.128 1.614 0 .078 0 .155-.017.303-.533-.073-1.042-.136-1.553-.216-1.805-.276-3.61-.564-5.418-.829a.45.45 0 01-.422-.397c-.685-2.423-2.268-3.7-4.8-3.933-1.354-.123-2.697-.174-4.025.209-2.229.642-3.336 2.345-2.99 4.577a2.489 2.489 0 001.517 1.939c1.167.535 2.368.992 3.596 1.369 2.346.69 4.737 1.211 7.068 1.938 1.303.406 2.552.968 3.72 1.674 3.21 1.956 4.625 4.944 4.485 8.644-.194 5.06-2.908 8.694-7.725 10.286-4.604 1.512-9.222 1.514-13.722-.322-4.604-1.878-7.078-5.414-7.454-10.388a31.483 31.483 0 01-.055-.955 1.46 1.46 0 01.046-.191zM153.762 46.168h-7.044c-.298 0-.356-.187-.443-.395-1.011-2.401-2.028-4.8-3.024-7.209a.599.599 0 00-.664-.431c-5.473.01-10.946.01-16.419 0a.652.652 0 00-.698.47c-1.061 2.399-2.147 4.783-3.221 7.175-.101.242-.189.4-.501.397-2.115-.012-4.231 0-6.346-.012a1.293 1.293 0 01-.197-.034c.061-.172.112-.33.177-.484l15.176-35.226a.676.676 0 01.727-.484c2.227.024 4.454.02 6.683 0a.584.584 0 01.635.414c4.992 11.783 9.99 23.566 14.995 35.349.041.128.084.26.164.47zm-24.81-15.474h11.33c-1.858-4.665-3.695-9.273-5.573-13.97-1.938 4.711-3.838 9.325-5.757 13.97zM251.764 46.168h-5.421c-.485 0-.986-.027-1.481 0a.527.527 0 01-.588-.402c-.999-2.423-2.016-4.81-3.012-7.216a.58.58 0 00-.621-.424c-5.508.01-11.014.01-16.516 0a.55.55 0 00-.603.385c-1.069 2.41-2.164 4.81-3.233 7.223a.617.617 0 01-.676.431c-2.115-.019-4.228 0-6.418 0 .079-.206.133-.36.203-.518 5.061-11.755 10.126-23.51 15.193-35.264a.64.64 0 01.703-.458c2.227.02 4.454.02 6.68 0a.586.586 0 01.635.417c4.992 11.792 9.989 23.576 14.992 35.351.053.128.095.264.163.475zm-24.796-15.48h11.333l-5.574-13.961-5.759 13.962zM83.627 46.168h-1.36c-1.829 0-3.658-.012-5.488 0a.609.609 0 01-.664-.441c-.99-2.394-2.001-4.776-2.992-7.168a.572.572 0 00-.616-.433c-5.503.01-11.007.01-16.51 0a.582.582 0 00-.628.416c-1.06 2.38-2.142 4.752-3.199 7.134a.673.673 0 01-.727.485c-2.096-.022-4.194 0-6.38 0 .073-.19.116-.33.174-.463l15.244-35.395a.56.56 0 01.606-.368c2.262.014 4.523.014 6.785 0a.552.552 0 01.594.402c4.991 11.783 9.989 23.566 14.992 35.349.048.111.087.252.17.482zM70.16 30.701l-5.522-13.836-.119.017c-1.892 4.604-3.79 9.19-5.697 13.812l11.338.007zM43.394 18.9L36.96 22.35a3.042 3.042 0 01-.191-.243c-2.029-3.242-4.91-5.047-8.774-4.948-3.904.1-6.749 2.077-8.603 5.435-2.878 5.215-.986 11.951 4.086 14.781 4.74 2.644 10.628.97 13.395-3.797.102-.176.203-.358.325-.574l6.457 3.5c-.264.462-.526.968-.828 1.453-2.7 4.267-6.453 7.107-11.455 8.016-5.92 1.073-11.076-.626-15.265-4.914-4.045-4.14-5.755-9.208-5.186-14.956.65-6.562 3.85-11.587 9.693-14.72 6.527-3.5 14.623-2.06 19.746 3.341a18.98 18.98 0 013.034 4.177zM199.339 9.881c-.426 1.365-.829 2.651-1.231 3.933a70297.535 70297.535 0 01-9.978 31.721c-.153.485-.359.65-.88.643a376.163 376.163 0 00-7.398 0 .545.545 0 01-.623-.468 34003.193 34003.193 0 00-10.865-35.29c-.051-.163-.082-.333-.136-.546h2.094c1.733 0 3.468.015 5.203 0a.556.556 0 01.656.485c2.438 8.155 4.884 16.305 7.34 24.452.048.157.106.312.196.589.097-.265.153-.405.194-.548 2.484-8.148 4.961-16.292 7.429-24.433.121-.4.267-.55.705-.545 2.242.027 4.488.012 6.729.012l.565-.005zM202.281 9.896h7.511v36.24h-7.511V9.896zM127.198 59.587v8.595h-2.055V53.995c.656 0 1.306-.022 1.938.014.119.012.274.225.339.378a2974.24 2974.24 0 013.778 9.208c.242.613.507 1.226.8 1.939.523-1.268 1.008-2.424 1.49-3.601 1.047-2.527 2.098-5.048 3.133-7.577a.486.486 0 01.553-.378c.569.021 1.141 0 1.735 0v14.19h-2.002v-8.593a.988.988 0 01-.128-.031c-.076.155-.153.31-.218.465-1.081 2.597-2.164 5.195-3.228 7.797-.129.316-.286.459-.63.417a5.265 5.265 0 00-.618 0c-1.253 0-1.253 0-1.735-1.175l-2.908-7.102c-.053-.126-.118-.242-.177-.37l-.067.011zM165.369 65.74l3.15 2.35a.6.6 0 01-.022.119h-.918a9.22 9.22 0 00-1.003 0c-.969.106-1.851-.063-2.578-.793a.573.573 0 00-.529-.012c-4.72 2.71-9.762-.763-10.23-5.406-.281-2.8.63-5.12 2.862-6.843 3.513-2.714 8.708-1.134 10.327 3.15.94 2.496.666 4.905-.867 7.127-.046.1-.102.177-.192.308zm-1.742-1.285c1.299-1.415 1.616-3.697.807-5.505a4.8 4.8 0 00-4.488-2.908c-1.696.037-3.467 1.192-4.051 2.666l7.732 5.747zm-1.805 1.33l-6.523-4.846c-.218 3.55 3.445 6.247 6.523 4.842v.005zM184.662 53.995c.666 0 1.284-.025 1.897.014a.717.717 0 01.432.356c1.722 3.024 3.439 6.053 5.151 9.085.092.16.192.312.364.596v-10.01h2.072v14.19c-.664 0-1.331.022-1.987-.02-.131 0-.279-.227-.366-.383a2627.125 2627.125 0 01-5.089-8.965 1.565 1.565 0 00-.414-.514v9.872c-.654 0-1.238.012-1.822 0-.088 0-.18-.162-.243-.26-.029-.043 0-.123 0-.186V54.39a1.597 1.597 0 01.005-.395zM303.665 61.109c0 3.322-2.181 6.288-5.174 7.027a6.895 6.895 0 01-8.401-5.377c-.589-3.053.243-5.66 2.738-7.59 3.512-2.725 8.69-1.143 10.323 3.151.334.877.439 1.84.649 2.758l-.135.031zm-6.863 5.043a4.41 4.41 0 003.223-1.314c1.304-1.274 1.742-2.832 1.51-4.604a4.829 4.829 0 00-6.082-4.017c-2.181.642-3.657 2.941-3.444 5.394.221 2.549 2.319 4.54 4.793 4.54zM31.985 62.228v2.392c0 1.05-.014 2.1 0 3.15 0 .364-.116.47-.467.453-.521-.024-1.042 0-1.588 0V54.021c.165-.012.318-.026.47-.026 1.416 0 2.83.021 4.248 0 1.711-.042 2.95.727 3.693 2.22a3.995 3.995 0 01-.388 4.41c-.378.508-.923.896-1.453 1.405l3.033 6.181c-.792 0-1.512.017-2.229-.017-.107 0-.225-.242-.303-.39-.853-1.724-1.7-3.448-2.54-5.173a.589.589 0 00-.641-.407c-.59.026-1.175.004-1.835.004zm.03-2.229c.067.017.136.029.205.036.938 0 1.876.017 2.811 0a1.815 1.815 0 001.67-1.662c.087-1.027-.485-2.028-1.36-2.113-1.092-.106-2.202-.024-3.327-.024v3.763zM209.235 54.014c1.839 0 3.661-.126 5.459.031 2.729.243 4.258 3.587 2.882 6.097-.405.727-.815 1.139-1.835 1.774.504 1.03 1.008 2.067 1.517 3.102l1.57 3.196c-.782 0-1.475.021-2.161-.02-.131 0-.284-.223-.361-.375a442.563 442.563 0 01-2.564-5.217.565.565 0 00-.61-.383c-.601.026-1.212 0-1.866 0v5.965h-2.031v-14.17zm2.038 6.01c1.112 0 2.142.038 3.169-.015.866-.039 1.549-.916 1.556-1.868.007-.953-.647-1.871-1.539-1.927-.969-.068-1.938-.036-2.907-.024a.387.387 0 00-.255.269c-.031 1.17-.024 2.34-.024 3.564zM267.388 62.228v5.957h-2.014V53.992H270.112c1.938 0 3.45 1.142 3.952 2.959a4.203 4.203 0 01-1.856 4.752c-.095.06-.194.114-.345.2 1.018 2.078 2.036 4.147 3.097 6.301-.778 0-1.468.02-2.156-.017-.131 0-.284-.22-.361-.373a428.41 428.41 0 01-2.569-5.22.551.551 0 00-.603-.387c-.601.038-1.205.021-1.883.021zm.041-6.023v3.835h2.607a4.46 4.46 0 00.572-.024c.836-.106 1.517-.942 1.527-1.863 0-.97-.625-1.876-1.49-1.939-1.057-.063-2.123.003-3.216.003v-.012zM77.361 53.992h4.926a4.045 4.045 0 013.913 4.5c-.189 1.536-.777 2.406-2.33 3.426 1.012 2.06 2.028 4.12 3.084 6.281-.785 0-1.505.017-2.224-.014-.107 0-.23-.243-.303-.386-.856-1.725-1.71-3.445-2.545-5.178a.59.59 0 00-.642-.41c-.6.027-1.2 0-1.844 0v5.952h-2.035v-14.17zm2.06 6.032c1.083 0 2.115.036 3.15-.015.83-.039 1.534-.885 1.567-1.774.037-.969-.56-1.924-1.407-1.994-1.086-.094-2.181-.02-3.305-.02l-.005 3.803zM50.185 68.218c-.756 0-1.41.025-2.06-.014a.727.727 0 01-.452-.376 319.992 319.992 0 01-2.55-5.175.63.63 0 00-.675-.434c-.587.034-1.173 0-1.818 0v5.956h-2.028v-14.18h4.74c1.904 0 3.453 1.153 3.942 2.907a4.247 4.247 0 01-1.856 4.806l-.34.193c1.018 2.084 2.036 4.158 3.097 6.317zm-7.538-8.192c1.03 0 2.03.017 3.024 0 .887-.022 1.619-.802 1.696-1.755.076-.91-.552-1.938-1.39-2.016-1.096-.099-2.205-.024-3.332-.024l.002 3.795zM102.726 53.992v.606c0 4.34 0 8.685.012 13.027 0 .497-.135.647-.615.603-.48-.043-.945 0-1.473 0v-3.32c-1.132 0-2.213.08-3.281-.021-.97-.092-1.558.203-1.953 1.105-.331.673-.712 1.321-1.14 1.938-.081.129-.242.288-.375.293-.71.027-1.422 0-2.215 0 .107-.206.17-.339.243-.467 2.654-4.431 5.306-8.863 7.957-13.296a.786.786 0 01.822-.468c.654.044 1.306 0 2.018 0zm-2.098 3.606l-.116-.056a1520.605 1520.605 0 00-3.08 5.127h3.196v-5.071zM234.559 68.185h-2.052V64.94a2.697 2.697 0 00-.347-.044h-3.877a.517.517 0 00-.525.298 71.9 71.9 0 01-1.624 2.695.823.823 0 01-.55.315c-.647.039-1.299.015-2.04.015.106-.211.164-.345.242-.47 2.675-4.474 5.353-8.945 8.033-13.415a.589.589 0 01.598-.347c.696.02 1.396 0 2.128 0l.014 14.198zm-2.084-10.822l-3.188 5.316h3.188v-5.316zM251.957 68.216c-.615 0-1.211.02-1.783-.017-.099 0-.262-.242-.264-.37-.024-.955-.015-1.908-.015-2.93h-.533c-1.177 0-2.355.022-3.533 0a.729.729 0 00-.727.433c-.484.858-1.015 1.697-1.507 2.545a.608.608 0 01-.644.356c-.633-.02-1.265 0-1.992 0 .114-.22.186-.373.269-.511l7.996-13.328a.666.666 0 01.671-.39c.681.03 1.36 0 2.077 0l-.015 14.212zm-2.098-5.527v-5.302l-3.184 5.302h3.184zM324.048 68.216c-.611 0-1.212.02-1.781-.017-.099 0-.257-.242-.259-.376-.027-.78-.015-1.56-.015-2.338V64.9h-4.17a.546.546 0 00-.562.315c-.516.892-1.064 1.771-1.582 2.665a.597.597 0 01-.604.35c-.644-.02-1.294 0-2.03 0 .118-.221.191-.37.278-.512l7.958-13.289a.721.721 0 01.741-.433c.664.036 1.333 0 2.026 0v14.221zm-2.091-5.527v-5.147a.465.465 0 01-.078-.024c-1.025 1.696-2.047 3.416-3.101 5.17h3.179zM206.996 68.192h-2.033v-3.293c-1.224 0-2.387.058-3.538-.02-.77-.05-1.211.177-1.558.88-.351.744-.838 1.422-1.25 2.14a.555.555 0 01-.567.324c-.649-.017-1.301 0-2.019 0 .045-.125.098-.247.158-.365 2.707-4.524 5.412-9.039 8.115-13.546a.553.553 0 01.567-.317c.698.014 1.393 0 2.125 0v14.197zm-2.079-5.51v-5.14c-.027-.012-.056-.014-.082-.024l-3.099 5.164h3.181zM263.24 54.426c-.265.669-.519 1.318-.776 1.956-2.845-.686-4.604-.117-5.905 1.897a5.282 5.282 0 00.262 5.997c1.231 1.59 3.198 2.263 4.967 1.684v-3.81h-2.142v-2.156c.113-.02.227-.033.342-.038h3.482c.29 0 .429.063.426.397 0 2.275 0 4.55-.019 6.826a.62.62 0 01-.301.448c-4.722 2.268-9.082-1.054-9.767-5.088-.502-2.969.37-5.494 2.791-7.352 1.883-1.454 3.996-1.674 6.225-.923.142.043.281.098.415.162zM176.106 54.007h2.045c.019.107.031.216.037.325 0 3.04.014 6.08 0 9.12a4.982 4.982 0 01-3.521 4.71 4.815 4.815 0 01-6.031-4.177 15.385 15.385 0 01-.059-1.286V54.036h2.077v9.128a2.946 2.946 0 00.741 2.06 2.57 2.57 0 002.811.792 2.813 2.813 0 001.878-2.372c.022-.243.024-.507.024-.761v-8.26l-.002-.616zM21.537 54.01h6.814v2.146h-4.728V60h3.652v2.142h-3.65v3.877h4.726v2.16h-6.814V54.008zM58.155 56.168h-4.75v3.826h3.667v2.15h-3.647v3.877h4.73v2.156h-6.823V54.036h6.823v2.132zM68.975 54.01h6.823v2.16h-4.783v3.815h3.659v2.166h-3.65v3.86h4.77v2.166h-6.82V54.01zM288.956 56.592c-2.74-1.277-4.824-.191-5.987 1.26a5.282 5.282 0 00-.294 6.073 4.656 4.656 0 006.281 1.63c0 .78.015 1.476-.019 2.17 0 .118-.218.283-.366.326-2.666.74-4.958.097-6.85-1.921-3.417-3.635-2.159-9.86 2.374-11.781a6.614 6.614 0 014.522-.226.413.413 0 01.341.31.402.402 0 01.005.163c-.021.652-.007 1.298-.007 1.996zM19.87 54.036v2.14h-4.755v3.838h3.66v2.154h-2.392c-.41 0-.994-.124-1.185.085-.22.242-.114.807-.116 1.228 0 1.43-.013 2.864 0 4.297 0 .36-.11.472-.466.453-.518-.025-1.04 0-1.587 0V54.036h6.84zM119.124 53.992l-.727 1.328c-1.066 1.917-2.147 3.824-3.196 5.75-.164.303-.253.64-.26.984-.022 1.861-.012 3.724-.012 5.585v.546h-2.038c0-.175-.024-.342-.024-.507 0-1.895 0-3.787-.012-5.677a1.854 1.854 0 00-.218-.853c-1.224-2.227-2.469-4.447-3.707-6.666a11.46 11.46 0 01-.243-.485c.785 0 1.507-.02 2.229 0 .119 0 .267.196.342.334.8 1.41 1.587 2.828 2.38 4.243.077.139.157.274.269.466.118-.211.225-.383.319-.555.776-1.389 1.556-2.772 2.322-4.166a.567.567 0 01.596-.344c.62.032 1.25.017 1.98.017zM62.182 56.173c-.828 0-1.601-.017-2.374 0-.376 0-.507-.104-.485-.485.032-.547 0-1.1 0-1.679h7.754v2.147h-2.786v12.016h-2.108V56.173zM305.271 54.021h2.004v11.992h4.825v2.167h-6.824l-.005-14.159zM182.527 68.192h-2.004V54.036h2.007l-.003 14.156zM220.021 54.036h1.972v14.153c-.109.019-.219.031-.33.037h-1.642v-14.19zM278.13 68.192h-1.982V54.036h1.982v14.156zM90.14 54.036v14.141h-2.003V54.036h2.004zM149.376 53.987a.555.555 0 00-.559.325c-2.693 4.5-5.388 8.999-8.084 13.495-.068.113-.114.242-.201.412h2.035a.559.559 0 00.567-.325 80.857 80.857 0 011.624-2.695.702.702 0 01.509-.29c1.272-.025 2.542-.015 3.814-.013.129.007.258.021.385.044v2.847c0 .143.141.4.242.402.597.042 1.197.022 1.815.022V53.995c-.748 0-1.449.012-2.147-.008zm.056 8.702h-3.184l3.104-5.173a.497.497 0 01.08.024v5.149z" fill="#fff"/>
</svg>