<svg width="168" height="40" fill="none" xmlns="http://www.w3.org/2000/svg">
  <path fill-rule="evenodd" clip-rule="evenodd" d="M132.253 10.482v12.575h-3.352V4.596h4.146a.413.413 0 0 1 .394.2c2.472 3.657 4.949 7.31 7.431 10.96a.561.561 0 0 0 .212.207V4.61h3.253v18.468h-2.954a.489.489 0 0 1-.471-.246 7520.775 7520.775 0 0 0-8.397-12.092l-.205-.286-.057.029ZM155.64 4.232c3.149.155 5.839 1.888 7.502 5.143a9.772 9.772 0 0 1-2.245 11.712 8.695 8.695 0 0 1-6.344 2.179 8.706 8.706 0 0 1-6.01-2.981c-1.833-2.102-2.649-4.563-2.4-7.332.308-3.444 1.945-6.066 5.002-7.742 1.227-.677 2.569-.972 4.495-.98Zm-5.842 9.247c0 1.492.343 2.583 1.023 3.566 1.874 2.718 5.485 3.122 7.827.877 2.188-2.097 2.337-5.72.314-7.985-1.759-1.975-4.446-2.388-6.584-.97-1.702 1.136-2.517 2.777-2.58 4.512ZM42.807 16.94c.451.076.886.147 1.322.222.723.123 1.445.254 2.168.377.123.02.22.049.246.204.28 1.449 1.208 2.23 2.615 2.488.945.192 1.923.15 2.848-.123.31-.094.603-.23.875-.405a1.901 1.901 0 0 0 .059-3.172c-.66-.478-1.43-.698-2.196-.92-1.238-.359-2.486-.682-3.714-1.078a5.853 5.853 0 0 1-2.444-1.476c-.954-.984-1.263-2.187-1.215-3.509.095-2.604 1.792-4.233 3.9-4.903 2.364-.754 4.692-.599 6.896.563 1.572.83 2.428 2.2 2.66 3.957.036.272.045.546.064.819 0 .04 0 .079-.008.153-.27-.036-.53-.068-.789-.109-.916-.14-1.832-.287-2.75-.42a.229.229 0 0 1-.214-.202c-.348-1.23-1.15-1.878-2.436-1.996-.688-.063-1.369-.089-2.043.106-1.131.325-1.693 1.19-1.518 2.323a1.262 1.262 0 0 0 .77.983 14.81 14.81 0 0 0 1.825.695c1.191.35 2.405.615 3.588.984a8.567 8.567 0 0 1 1.888.85c1.63.992 2.348 2.509 2.276 4.387-.098 2.568-1.475 4.413-3.92 5.22-2.337.768-4.681.77-6.965-.163-2.337-.953-3.593-2.748-3.783-5.272-.013-.162-.021-.324-.029-.485a.74.74 0 0 1 .024-.097ZM77.674 23.063h-3.576c-.151 0-.18-.095-.225-.2-.513-1.22-1.03-2.437-1.535-3.66a.303.303 0 0 0-.337-.218c-2.778.005-5.555.005-8.333 0a.33.33 0 0 0-.354.239c-.54 1.217-1.09 2.427-1.635 3.641-.052.123-.096.203-.255.202-1.073-.006-2.147 0-3.22-.006a.646.646 0 0 1-.1-.018c.03-.087.056-.167.09-.246L65.896 4.92a.34.34 0 0 1 .37-.246c1.13.013 2.26.01 3.391 0a.296.296 0 0 1 .323.21c2.533 5.98 5.07 11.961 7.61 17.942.02.065.043.131.084.238ZM65.08 15.21h5.75c-.943-2.367-1.875-4.706-2.828-7.09-.984 2.391-1.948 4.733-2.922 7.09ZM127.414 23.063h-2.751c-.246 0-.5-.014-.751 0a.267.267 0 0 1-.299-.204c-.507-1.23-1.023-2.441-1.529-3.662a.29.29 0 0 0-.315-.216c-2.796.006-5.59.006-8.383 0a.278.278 0 0 0-.306.196c-.542 1.224-1.098 2.441-1.64 3.666a.315.315 0 0 1-.344.219c-1.073-.01-2.146 0-3.257 0 .04-.105.067-.183.103-.263 2.569-5.967 5.139-11.933 7.711-17.898a.325.325 0 0 1 .357-.233c1.13.01 2.261.01 3.39 0a.296.296 0 0 1 .323.212c2.533 5.985 5.07 11.966 7.609 17.942.027.065.048.134.082.241Zm-12.585-7.856h5.752c-.944-2.365-1.875-4.7-2.829-7.086l-2.923 7.086ZM42.076 23.063h-.69c-.928 0-1.857-.006-2.785 0a.309.309 0 0 1-.337-.224c-.503-1.215-1.016-2.424-1.52-3.638a.29.29 0 0 0-.312-.22c-2.793.006-5.587.006-8.38 0a.295.295 0 0 0-.318.212c-.538 1.207-1.088 2.412-1.624 3.62a.341.341 0 0 1-.369.246c-1.064-.01-2.129 0-3.238 0 .037-.096.059-.167.088-.235L30.33 4.86a.284.284 0 0 1 .307-.187c1.148.008 2.296.008 3.444 0a.28.28 0 0 1 .301.205c2.533 5.98 5.07 11.96 7.61 17.94.024.057.044.128.085.245Zm-6.835-7.85-2.803-7.022-.06.008c-.961 2.337-1.924 4.665-2.892 7.01l5.755.004ZM21.655 9.224l-3.265 1.75a1.575 1.575 0 0 1-.097-.123c-1.03-1.646-2.492-2.562-4.453-2.512-1.982.05-3.425 1.054-4.366 2.759-1.461 2.647-.5 6.065 2.073 7.502 2.406 1.342 5.395.492 6.799-1.927l.165-.292 3.277 1.776c-.134.235-.267.492-.42.738-1.37 2.166-3.275 3.607-5.814 4.068-3.004.545-5.622-.317-7.748-2.494-2.053-2.1-2.92-4.673-2.632-7.59.33-3.33 1.954-5.881 4.92-7.471 3.313-1.776 7.422-1.046 10.022 1.695a9.628 9.628 0 0 1 1.54 2.12ZM100.806 4.646a29923.472 29923.472 0 0 1-5.69 18.096c-.077.246-.181.33-.446.326-1.25-.014-2.502-.011-3.755 0a.275.275 0 0 1-.316-.238c-1.835-5.97-3.673-11.941-5.514-17.91-.026-.083-.042-.17-.07-.277h1.064c.879 0 1.76.007 2.64 0a.283.283 0 0 1 .333.246c1.237 4.138 2.48 8.275 3.726 12.41.024.08.054.158.1.299.048-.134.077-.206.098-.278 1.26-4.136 2.517-8.27 3.77-12.4.062-.204.136-.28.358-.277 1.138.013 2.278.006 3.416.006l.286-.003ZM102.299 4.654h3.813v18.393h-3.813V4.654ZM64.19 29.874v4.362h-1.042v-7.2c.333 0 .662-.012.983.007.06.006.14.114.173.192.642 1.557 1.28 3.115 1.917 4.673.123.311.257.622.406.984.266-.643.511-1.23.756-1.828.532-1.282 1.065-2.561 1.59-3.845a.246.246 0 0 1 .28-.192c.29.01.58 0 .882 0v7.202h-1.016v-4.361a.504.504 0 0 1-.066-.016c-.038.078-.077.157-.11.236-.549 1.318-1.099 2.637-1.638 3.957-.066.16-.146.233-.32.212a2.646 2.646 0 0 0-.314 0c-.636 0-.636 0-.88-.596l-1.476-3.605c-.027-.064-.06-.123-.09-.188l-.034.006ZM83.565 32.996l1.599 1.193a.324.324 0 0 1-.012.06h-.466a4.7 4.7 0 0 0-.509 0c-.492.055-.94-.031-1.309-.402a.29.29 0 0 0-.268-.006c-2.395 1.375-4.955-.387-5.192-2.744-.143-1.421.32-2.598 1.452-3.473 1.784-1.377 4.42-.575 5.242 1.6.477 1.266.338 2.488-.44 3.616-.024.05-.052.09-.097.156Zm-.885-.652c.66-.718.82-1.876.41-2.794a2.437 2.437 0 0 0-2.278-1.475c-.86.018-1.76.605-2.056 1.352l3.924 2.917Zm-.916.676-3.31-2.46c-.111 1.802 1.748 3.17 3.31 2.457v.003ZM93.357 27.035c.338 0 .652-.012.963.008a.361.361 0 0 1 .219.18c.874 1.535 1.745 3.072 2.614 4.611.047.081.098.159.185.303v-5.08h1.052v7.201c-.338 0-.676.011-1.009-.01-.066 0-.141-.115-.186-.194-.863-1.514-1.724-3.031-2.582-4.55a.798.798 0 0 0-.21-.261v5.01c-.333 0-.63.006-.926 0-.044 0-.09-.082-.123-.131-.014-.022 0-.063 0-.095v-6.791a.785.785 0 0 1 .003-.2ZM153.757 30.646c0 1.686-1.107 3.192-2.626 3.567a3.496 3.496 0 0 1-4.264-2.73c-.299-1.549.123-2.872 1.39-3.851 1.782-1.384 4.41-.58 5.239 1.599.17.445.223.933.33 1.4l-.069.015Zm-3.483 2.56a2.234 2.234 0 0 0 1.636-.667c.661-.647.884-1.438.766-2.337a2.444 2.444 0 0 0-2.049-2.099 2.45 2.45 0 0 0-1.038.06c-1.107.326-1.856 1.493-1.748 2.738.112 1.293 1.177 2.304 2.433 2.304ZM15.865 31.214v1.214c0 .533-.007 1.066 0 1.599 0 .184-.059.239-.237.23-.264-.012-.529 0-.806 0v-7.208c.084-.006.162-.014.239-.014.718 0 1.436.011 2.156 0 .868-.02 1.497.37 1.874 1.127a2.028 2.028 0 0 1-.197 2.238c-.191.258-.468.455-.737.713l1.54 3.138c-.403 0-.768.008-1.132-.009-.054 0-.114-.123-.154-.198-.433-.875-.862-1.75-1.289-2.625a.298.298 0 0 0-.326-.207c-.299.013-.596.002-.93.002Zm.015-1.131c.034.008.07.015.105.018.476 0 .951.009 1.426 0a.921.921 0 0 0 .848-.843c.044-.522-.246-1.03-.69-1.073-.555-.054-1.118-.012-1.689-.012v1.91ZM105.829 27.045c.933 0 1.858-.064 2.771.016 1.385.123 2.161 1.82 1.462 3.095-.205.368-.413.578-.931.9.256.522.512 1.049.77 1.574l.797 1.622c-.397 0-.749.011-1.097-.01-.066 0-.144-.113-.183-.19-.439-.882-.876-1.764-1.302-2.648a.284.284 0 0 0-.309-.195c-.305.014-.615 0-.947 0v3.028h-1.031v-7.192Zm1.034 3.05c.565 0 1.087.02 1.609-.007.439-.02.786-.465.789-.948.004-.484-.328-.95-.78-.978-.492-.034-.984-.018-1.476-.012a.196.196 0 0 0-.129.136c-.016.594-.013 1.188-.013 1.81ZM135.345 31.214v3.023h-1.022v-7.203h2.404c.984 0 1.751.58 2.006 1.502a2.136 2.136 0 0 1-.942 2.412c-.048.03-.099.057-.175.102.517 1.053 1.033 2.104 1.572 3.197-.395 0-.745.01-1.095-.008-.066 0-.144-.112-.183-.19-.44-.88-.875-1.763-1.304-2.649a.28.28 0 0 0-.306-.197c-.305.02-.611.011-.955.011Zm.02-3.057v1.947h1.324c.097.002.194-.002.29-.012.424-.055.77-.479.775-.946 0-.492-.317-.952-.757-.984-.536-.032-1.077.001-1.632.001v-.006ZM38.896 27.034h2.5a2.052 2.052 0 0 1 1.986 2.284c-.096.78-.394 1.221-1.183 1.739.514 1.045 1.03 2.09 1.566 3.188-.399 0-.764.008-1.13-.008-.053 0-.116-.123-.153-.195-.434-.876-.868-1.75-1.291-2.628a.3.3 0 0 0-.326-.208c-.305.013-.609 0-.936 0v3.02h-1.033v-7.192Zm1.045 3.061c.55 0 1.074.019 1.599-.007.422-.02.779-.449.796-.9.018-.492-.284-.977-.715-1.012-.55-.048-1.107-.01-1.677-.01l-.003 1.93ZM25.103 34.255c-.384 0-.716.012-1.046-.008a.368.368 0 0 1-.23-.19c-.439-.873-.87-1.748-1.293-2.627a.32.32 0 0 0-.343-.22c-.298.017-.596 0-.923 0v3.022h-1.03v-7.197h2.406c.967 0 1.753.586 2.001 1.476a2.156 2.156 0 0 1-.942 2.439l-.172.098c.517 1.058 1.033 2.11 1.572 3.207Zm-3.826-4.159c.522 0 1.03.01 1.535 0 .45-.01.821-.407.86-.89.039-.462-.28-.984-.705-1.023-.556-.05-1.12-.012-1.691-.012v1.925ZM51.77 27.034v.308c0 2.202 0 4.407.006 6.611 0 .252-.069.329-.312.306-.244-.022-.48 0-.748 0v-1.684c-.574 0-1.123.04-1.665-.012-.492-.046-.791.104-.991.561-.168.342-.362.671-.579.984-.041.065-.123.147-.19.149-.36.014-.722 0-1.124 0 .054-.105.086-.172.123-.237l4.039-6.749a.398.398 0 0 1 .417-.237c.332.022.662 0 1.024 0Zm-1.065 1.83-.059-.028a808.2 808.2 0 0 0-1.563 2.602h1.622v-2.574ZM118.682 34.237h-1.041V32.59a1.352 1.352 0 0 0-.176-.022h-1.968a.263.263 0 0 0-.267.152c-.267.46-.537.92-.824 1.367a.422.422 0 0 1-.279.16c-.329.02-.659.007-1.036.007.054-.106.084-.174.123-.238 1.358-2.27 2.717-4.54 4.077-6.808a.3.3 0 0 1 .304-.176c.353.01.708 0 1.08 0l.007 7.205Zm-1.057-5.492-1.619 2.698h1.619v-2.698ZM127.513 34.253c-.313 0-.615.01-.905-.008-.051 0-.133-.123-.135-.188-.012-.485-.007-.968-.007-1.487h-.27c-.598 0-1.196.01-1.794 0a.367.367 0 0 0-.369.22c-.246.435-.515.86-.765 1.291a.307.307 0 0 1-.327.18c-.321-.009-.642 0-1.011 0 .058-.111.095-.189.137-.259l4.058-6.764a.34.34 0 0 1 .341-.198c.346.015.69 0 1.054 0l-.007 7.213Zm-1.065-2.805v-2.69l-1.616 2.69h1.616ZM164.103 34.253c-.31 0-.615.01-.904-.008-.051 0-.131-.123-.132-.191-.014-.396-.007-.792-.007-1.187v-.297h-2.117a.28.28 0 0 0-.285.16c-.262.452-.54.899-.803 1.352a.303.303 0 0 1-.307.177c-.327-.01-.656 0-1.03 0 .06-.111.097-.187.141-.26l4.039-6.744a.371.371 0 0 1 .376-.22c.337.019.677 0 1.029 0v7.218Zm-1.062-2.805v-2.612a.266.266 0 0 1-.039-.012c-.52.86-1.039 1.734-1.574 2.624h1.613ZM104.693 34.241h-1.032V32.57c-.621 0-1.212.03-1.796-.01-.391-.026-.615.09-.791.446-.178.378-.425.722-.634 1.086a.283.283 0 0 1-.288.165c-.33-.009-.66 0-1.025 0 .023-.063.05-.125.08-.186 1.374-2.295 2.747-4.587 4.119-6.874a.28.28 0 0 1 .288-.162c.354.008.707 0 1.079 0v7.206Zm-1.056-2.797v-2.608c-.013-.006-.028-.008-.042-.012l-1.573 2.62h1.615ZM133.239 27.254c-.134.34-.263.67-.394.993-1.443-.348-2.336-.06-2.997.963a2.681 2.681 0 0 0 .133 3.044c.625.806 1.624 1.148 2.521.854v-1.933h-1.087V30.08c.057-.01.115-.016.174-.02h1.767c.147 0 .218.033.216.203 0 1.154 0 2.31-.01 3.464a.311.311 0 0 1-.152.228c-2.397 1.15-4.61-.535-4.958-2.583-.254-1.507.189-2.788 1.417-3.732.956-.737 2.028-.85 3.16-.468.072.022.142.05.21.082ZM89.014 27.041h1.038c.01.055.016.11.019.165 0 1.544.007 3.086 0 4.63a2.525 2.525 0 0 1-1.787 2.39 2.445 2.445 0 0 1-3.062-2.12 7.712 7.712 0 0 1-.029-.653v-4.397h1.054V31.69c-.014.384.121.758.376 1.045a1.301 1.301 0 0 0 1.427.402 1.426 1.426 0 0 0 .953-1.204c.011-.122.012-.256.012-.386v-4.505ZM10.562 27.043h3.459v1.09h-2.4v1.95h1.854v1.087h-1.853v1.968h2.399v1.096h-3.459v-7.191ZM29.148 28.139h-2.41v1.941h1.86v1.091h-1.85v1.968h2.4v1.095h-3.463v-7.178h3.463v1.082ZM34.64 27.043h3.462v1.097h-2.427v1.936h1.857v1.099H35.68v1.96h2.42v1.099h-3.46v-7.191ZM146.292 28.354c-1.391-.648-2.449-.097-3.039.64a2.686 2.686 0 0 0-.149 3.081 2.36 2.36 0 0 0 3.188.828c0 .396.007.749-.01 1.1 0 .06-.111.145-.186.167-1.353.375-2.516.049-3.477-.976-1.734-1.844-1.096-5.004 1.206-5.98a3.354 3.354 0 0 1 2.294-.113.209.209 0 0 1 .176.24c-.011.33-.003.659-.003 1.013ZM9.716 27.056v1.086H7.303v1.948H9.16v1.094H7.946c-.208 0-.504-.063-.601.043-.112.123-.058.41-.06.623 0 .726-.005 1.454 0 2.18 0 .184-.055.24-.235.23-.264-.012-.528 0-.806 0v-7.204h3.472ZM60.093 27.034l-.37.674c-.54.973-1.089 1.94-1.622 2.918a1.1 1.1 0 0 0-.131.5c-.011.944-.006 1.89-.006 2.828v.277h-1.035c0-.089-.012-.173-.012-.257 0-.962 0-1.922-.006-2.881a.939.939 0 0 0-.11-.433c-.622-1.13-1.254-2.257-1.883-3.384a5.747 5.747 0 0 1-.123-.246c.399 0 .765-.01 1.132 0 .06 0 .135.1.173.17.406.716.806 1.435 1.208 2.154l.137.236c.06-.107.114-.195.162-.282.394-.705.79-1.407 1.178-2.114a.288.288 0 0 1 .303-.175c.315.023.634.015 1.005.015ZM31.192 28.141c-.42 0-.813-.009-1.205 0-.191 0-.257-.053-.246-.246.016-.278 0-.558 0-.852h3.935v1.09h-1.414v6.098h-1.07v-6.09ZM154.572 27.049h1.017v6.086h2.449v1.1h-3.463l-.003-7.186ZM92.273 34.241h-1.017v-7.185h1.019l-.002 7.185ZM111.303 27.056h1.001v7.184c-.055.01-.111.015-.167.018h-.834v-7.202ZM140.797 34.241h-1.006v-7.185h1.006v7.185ZM45.382 27.056v7.178h-1.017v-7.178h1.017ZM75.448 27.032a.282.282 0 0 0-.285.165 8153.312 8153.312 0 0 1-4.102 6.848c-.035.058-.058.123-.103.21h1.034a.284.284 0 0 0 .287-.165c.269-.461.54-.919.824-1.368a.356.356 0 0 1 .259-.147c.645-.013 1.29-.008 1.936-.007.065.004.13.011.195.023v1.445c0 .072.071.203.123.204.303.02.608.01.921.01v-7.215c-.38 0-.735.007-1.09-.003Zm.028 4.416H73.86l1.575-2.626a.26.26 0 0 1 .04.013v2.613Z" fill="#2B275B"/>
</svg>